<svg width="16" height="17" viewBox="0 0 16 17" fill="none" xmlns="http://www.w3.org/2000/svg">
<path d="M5.80473 5.90272C6.06508 5.64237 6.06508 5.22026 5.80473 4.95991C5.54438 4.69956 5.12227 4.69956 4.86192 4.95991L1.52859 8.29324C1.26824 8.55359 1.26824 8.9757 1.52859 9.23605L4.86192 12.5694C5.12227 12.8297 5.54438 12.8297 5.80473 12.5694C6.06508 12.309 6.06508 11.8869 5.80473 11.6266L2.9428 8.76465L5.80473 5.90272Z" fill="#333333"/>
<path d="M11.1381 4.95991C10.8777 4.69956 10.4556 4.69956 10.1953 4.95991C9.93491 5.22026 9.93491 5.64237 10.1953 5.90272L13.0572 8.76465L10.1953 11.6266C9.93491 11.8869 9.93491 12.309 10.1953 12.5694C10.4556 12.8297 10.8777 12.8297 11.1381 12.5694L14.4714 9.23605C14.7317 8.9757 14.7317 8.55359 14.4714 8.29324L11.1381 4.95991Z" fill="#333333"/>
</svg>
