<svg width="24" height="25" viewBox="0 0 24 25" fill="none" xmlns="http://www.w3.org/2000/svg">
<g clip-path="url(#clip0_350_992)">
<path d="M8.01327 17.429L6.81608 19.4242C6.54997 19.8678 6.53835 20.4068 6.78491 20.8662C7.02346 21.3105 7.44365 21.5781 7.93771 21.6004C7.98782 21.6026 8.03868 21.6026 8.08874 21.6004C8.58285 21.5781 9.00299 21.3105 9.24158 20.8662C9.48819 20.4068 9.47652 19.8678 9.21041 19.4242L8.01327 17.429Z" fill="#1FC16B"/>
<path d="M4.48169 11.4403H11.5449C11.294 9.71587 9.80617 8.38696 8.01325 8.38696C6.22033 8.38696 4.73256 9.71592 4.48169 11.4403Z" fill="#1FC16B"/>
<path d="M7.31007 7.03051V5.6027H8.71632V7.03051C9.83339 7.18923 10.8321 7.72018 11.5825 8.49353V3.92725H4.44385V8.49357C5.19432 7.72018 6.19299 7.18923 7.31007 7.03051Z" fill="#1FC16B"/>
<path d="M1.28125 24.7646H14.7452V0.764648H1.28125V24.7646ZM10.4805 21.5313C10.0089 22.4097 9.13844 22.9608 8.152 23.0051C8.10587 23.0073 8.05914 23.0083 8.0132 23.0083C7.96727 23.0083 7.92053 23.0073 7.87436 23.0051C6.88801 22.9608 6.0175 22.4097 5.54589 21.5313C5.0627 20.6313 5.08675 19.5731 5.6102 18.7007L8.0132 14.6957L10.4162 18.7007C10.9397 19.5731 10.9637 20.6312 10.4805 21.5313ZM3.03761 2.52101H12.9888V12.8464H3.03761V2.52101Z" fill="#1FC16B"/>
<path d="M20.6093 0.764648H18.4999V2.1709H20.6093C20.997 2.1709 21.3124 2.48632 21.3124 2.87402V4.0459H19.2031V8.49902C19.2031 9.66213 20.1493 10.6084 21.3124 10.6084V22.6298C21.3124 23.0315 20.9856 23.3584 20.5839 23.3584C20.1821 23.3584 19.8553 23.0315 19.8553 22.6298V14.1709C19.8553 13.0078 18.909 12.0615 17.7459 12.0615H16.1619V13.4678H17.7459C18.1336 13.4678 18.449 13.7832 18.449 14.1709V22.6298C18.449 23.8069 19.4067 24.7646 20.5839 24.7646C21.761 24.7646 22.7187 23.8069 22.7187 22.6298V2.87402C22.7187 1.71091 21.7725 0.764648 20.6093 0.764648Z" fill="#1FC16B"/>
</g>
<defs>
<clipPath id="clip0_350_992">
<rect width="24" height="24" fill="white" transform="translate(0 0.764648)"/>
</clipPath>
</defs>
</svg>
