<svg width="24" height="25" viewBox="0 0 24 25" fill="none" xmlns="http://www.w3.org/2000/svg">
<path d="M21.4058 3.47241C21.3115 3.3418 21.1607 3.26465 21 3.26465H3.00002C2.83938 3.26465 2.6885 3.3418 2.59426 3.47241C2.50051 3.60278 2.47463 3.77026 2.5259 3.92285L3.50002 6.84522V21.7647C3.50002 22.0408 3.72366 22.2647 4.00002 22.2647C4.27639 22.2647 4.50002 22.0408 4.50002 21.7647V7.26465H19.5V21.7646C19.5 22.0408 19.7237 22.2646 20 22.2646C20.2764 22.2646 20.5 22.0408 20.5 21.7646V6.84521L21.4741 3.92285C21.5254 3.77026 21.4995 3.60278 21.4058 3.47241Z" fill="#B6B6B6"/>
<path d="M17.5 10.3568V9.76465C17.5 9.48852 17.2764 9.26465 17 9.26465C16.7236 9.26465 16.5 9.48852 16.5 9.76465V10.3568C15.9193 10.5638 15.5 11.1137 15.5 11.7646V12.2646C15.5 12.9156 15.9193 13.4654 16.5 13.6725V15.7646C16.5 16.0403 16.2759 16.2646 16 16.2646H15.5C15.5 15.7131 15.0513 15.2646 14.5 15.2646H14V18.2646H14.5C15.0513 18.2646 15.5 17.8162 15.5 17.2646H16C16.8271 17.2646 17.5 16.5918 17.5 15.7646V13.6725C18.0807 13.4655 18.5 12.9156 18.5 12.2646V11.7646C18.5 11.1137 18.0807 10.5638 17.5 10.3568Z" fill="#B6B6B6"/>
<path d="M10.25 12.2646H9.25V13.2646H10.25V12.2646Z" fill="#B6B6B6"/>
<path d="M12 9.26465H7.5C6.95001 9.26465 6.5 9.71463 6.5 10.2646V19.7646H13V10.2646C13 9.71234 12.5523 9.26465 12 9.26465ZM10.75 16.2646H8.75C8.47363 16.2646 8.25 16.0408 8.25 15.7646C8.25 15.4885 8.47363 15.2646 8.75 15.2646H10.75C11.0264 15.2646 11.25 15.4885 11.25 15.7646C11.25 16.0408 11.0264 16.2646 10.75 16.2646ZM11.25 13.7646C11.25 14.0408 11.0264 14.2646 10.75 14.2646H8.75C8.47363 14.2646 8.25 14.0408 8.25 13.7646V11.7646C8.25 11.4885 8.47363 11.2646 8.75 11.2646H10.75C11.0264 11.2646 11.25 11.4885 11.25 11.7646V13.7646Z" fill="#B6B6B6"/>
<path d="M13.5 20.7646H6C5.72386 20.7646 5.5 20.9885 5.5 21.2646V21.7646C5.5 22.0408 5.72386 22.2646 6 22.2646H13.5C13.7761 22.2646 14 22.0408 14 21.7646V21.2646C14 20.9885 13.7761 20.7646 13.5 20.7646Z" fill="#B6B6B6"/>
</svg>
