<svg width="24" height="25" viewBox="0 0 24 25" fill="none" xmlns="http://www.w3.org/2000/svg">
<g clip-path="url(#clip0_420_1482)">
<path d="M8.01315 17.429L6.81596 19.4242C6.54985 19.8678 6.53823 20.4068 6.78479 20.8662C7.02334 21.3105 7.44352 21.5781 7.93759 21.6004C7.9877 21.6026 8.03855 21.6026 8.08862 21.6004C8.58273 21.5781 9.00287 21.3105 9.24146 20.8662C9.48807 20.4068 9.4764 19.8678 9.21029 19.4242L8.01315 17.429Z" fill="#FB3748"/>
<path d="M4.48157 11.4403H11.5447C11.2939 9.71587 9.80605 8.38696 8.01313 8.38696C6.22021 8.38696 4.73244 9.71592 4.48157 11.4403Z" fill="#FB3748"/>
<path d="M7.31007 7.03051V5.6027H8.71632V7.03051C9.83339 7.18923 10.8321 7.72018 11.5825 8.49353V3.92725H4.44385V8.49357C5.19432 7.72018 6.19299 7.18923 7.31007 7.03051Z" fill="#FB3748"/>
<path d="M1.28125 24.7646H14.7452V0.764648H1.28125V24.7646ZM10.4805 21.5313C10.0089 22.4097 9.13844 22.9608 8.152 23.0051C8.10587 23.0073 8.05914 23.0083 8.0132 23.0083C7.96727 23.0083 7.92053 23.0073 7.87436 23.0051C6.88801 22.9608 6.0175 22.4097 5.54589 21.5313C5.0627 20.6313 5.08675 19.5731 5.6102 18.7007L8.0132 14.6957L10.4162 18.7007C10.9397 19.5731 10.9637 20.6312 10.4805 21.5313ZM3.03761 2.52101H12.9888V12.8464H3.03761V2.52101Z" fill="#FB3748"/>
<path d="M20.6094 0.764648H18.5001V2.1709H20.6094C20.9971 2.1709 21.3126 2.48632 21.3126 2.87402V4.0459H19.2032V8.49902C19.2032 9.66213 20.1495 10.6084 21.3126 10.6084V22.6298C21.3126 23.0315 20.9857 23.3584 20.584 23.3584C20.1823 23.3584 19.8554 23.0315 19.8554 22.6298V14.1709C19.8554 13.0078 18.9091 12.0615 17.746 12.0615H16.162V13.4678H17.746C18.1337 13.4678 18.4492 13.7832 18.4492 14.1709V22.6298C18.4492 23.8069 19.4069 24.7646 20.584 24.7646C21.7611 24.7646 22.7188 23.8069 22.7188 22.6298V2.87402C22.7188 1.71091 21.7726 0.764648 20.6094 0.764648Z" fill="#FB3748"/>
</g>
<defs>
<clipPath id="clip0_420_1482">
<rect width="24" height="24" fill="white" transform="translate(0 0.764648)"/>
</clipPath>
</defs>
</svg>
