<svg width="24" height="25" viewBox="0 0 24 25" fill="none" xmlns="http://www.w3.org/2000/svg">
<path d="M4.99995 4.76465H19C19.2833 4.76465 19.521 4.86065 19.7129 5.05265C19.9049 5.24465 20.0006 5.48198 20 5.76465C19.9993 6.04732 19.9033 6.28498 19.712 6.47765C19.5206 6.67031 19.2833 6.76598 19 6.76465H4.99995C4.71662 6.76465 4.47928 6.66865 4.28795 6.47665C4.09662 6.28465 4.00062 6.04732 3.99995 5.76465C3.99928 5.48198 4.09528 5.24465 4.28795 5.05265C4.48062 4.86065 4.71795 4.76465 4.99995 4.76465ZM4.99995 20.7646C4.71662 20.7646 4.47928 20.6686 4.28795 20.4766C4.09662 20.2846 4.00062 20.0473 3.99995 19.7646V14.7646H3.82495C3.50828 14.7646 3.24995 14.6436 3.04995 14.4016C2.84995 14.1596 2.78328 13.8806 2.84995 13.5646L3.84995 8.56465C3.89995 8.33132 4.01662 8.13965 4.19995 7.98965C4.38328 7.83965 4.59162 7.76465 4.82495 7.76465H19.1749C19.4083 7.76465 19.6166 7.83965 19.7999 7.98965C19.9833 8.13965 20.1 8.33132 20.15 8.56465L21.15 13.5646C21.2166 13.8813 21.15 14.1603 20.95 14.4016C20.75 14.643 20.4916 14.764 20.1749 14.7646H20V19.7646C20 20.048 19.9039 20.2856 19.712 20.4776C19.52 20.6696 19.2826 20.7653 19 20.7646C18.7173 20.764 18.48 20.668 18.288 20.4766C18.096 20.2853 18 20.048 18 19.7646V14.7646H14V19.7646C14 20.048 13.904 20.2856 13.712 20.4776C13.52 20.6696 13.2826 20.7653 13 20.7646H4.99995ZM5.99995 18.7646H12V14.7646H5.99995V18.7646ZM5.04995 12.7646H18.95L18.35 9.76465H5.64995L5.04995 12.7646Z" fill="#B6B6B6"/>
</svg>
