<svg width="22" height="22" viewBox="0 0 22 22" fill="none" xmlns="http://www.w3.org/2000/svg">
<path d="M11.5 19.4576C10.595 20.0856 9.14 19.7496 8.825 18.4476C8.76108 18.1838 8.63578 17.9389 8.45929 17.7326C8.2828 17.5264 8.06011 17.3648 7.80935 17.2609C7.55859 17.157 7.28683 17.1138 7.01621 17.1348C6.74559 17.1558 6.48375 17.2403 6.252 17.3816C4.709 18.3216 2.942 16.5556 3.882 15.0116C4.0231 14.78 4.10755 14.5183 4.12848 14.2479C4.14942 13.9774 4.10624 13.7059 4.00247 13.4553C3.8987 13.2047 3.73726 12.9821 3.53127 12.8056C3.32529 12.6291 3.08056 12.5037 2.817 12.4396C1.061 12.0136 1.061 9.51565 2.817 9.08965C3.0808 9.02573 3.32578 8.90043 3.532 8.72394C3.73822 8.54745 3.89985 8.32476 4.00375 8.074C4.10764 7.82323 4.15085 7.55148 4.12987 7.28086C4.10889 7.01024 4.0243 6.7484 3.883 6.51665C2.943 4.97365 4.709 3.20665 6.253 4.14665C7.253 4.75465 8.549 4.21665 8.825 3.08165C9.251 1.32565 11.749 1.32565 12.175 3.08165C12.2389 3.34545 12.3642 3.59043 12.5407 3.79665C12.7172 4.00287 12.9399 4.1645 13.1907 4.26839C13.4414 4.37229 13.7132 4.4155 13.9838 4.39452C14.2544 4.37354 14.5162 4.28895 14.748 4.14765C16.291 3.20765 18.058 4.97365 17.118 6.51765C16.9769 6.7493 16.8924 7.01099 16.8715 7.28142C16.8506 7.55186 16.8938 7.82342 16.9975 8.07403C17.1013 8.32464 17.2627 8.54723 17.4687 8.7237C17.6747 8.90017 17.9194 9.02555 18.183 9.08965C19.675 9.45165 19.899 11.3086 18.857 12.1196" stroke="#B6B6B6" stroke-width="2" stroke-linecap="round" stroke-linejoin="round"/>
<path d="M7.5 10.7646C7.5 11.5603 7.81607 12.3234 8.37868 12.886C8.94129 13.4486 9.70435 13.7646 10.5 13.7646C11.2956 13.7646 12.0587 13.4486 12.6213 12.886C13.1839 12.3234 13.5 11.5603 13.5 10.7646C13.5 9.969 13.1839 9.20594 12.6213 8.64333C12.0587 8.08072 11.2956 7.76465 10.5 7.76465C9.70435 7.76465 8.94129 8.08072 8.37868 8.64333C7.81607 9.20594 7.5 9.969 7.5 10.7646ZM15.5 20.7646L20.5 17.7646L15.5 14.7646V20.7646Z" stroke="#B6B6B6" stroke-width="2" stroke-linecap="round" stroke-linejoin="round"/>
</svg>
