<svg width="25" height="25" viewBox="0 0 25 25" fill="none" xmlns="http://www.w3.org/2000/svg">
<path d="M14.8239 12.7607L16.9209 10.6635C17.6365 10.944 18.418 11.0118 19.1712 10.8589C19.9245 10.706 20.6176 10.3387 21.1672 9.80138C21.7168 9.26401 22.0996 8.57936 22.2694 7.82971C22.4393 7.08006 22.389 6.29731 22.1248 5.57552C22.1058 5.52382 22.074 5.47773 22.0325 5.4415C21.991 5.40527 21.9411 5.38007 21.8873 5.36823C21.8335 5.35639 21.7776 5.35828 21.7247 5.37373C21.6718 5.38918 21.6237 5.4177 21.5848 5.45665L19.1713 7.8709L17.4986 7.82646L17.4543 6.15396L19.8688 3.73952C19.9077 3.70058 19.9363 3.65244 19.9518 3.59954C19.9672 3.54664 19.9691 3.4907 19.9573 3.43689C19.9454 3.38307 19.9201 3.33311 19.8839 3.29162C19.8476 3.25014 19.8014 3.21846 19.7497 3.19952C19.0279 2.93497 18.245 2.88454 17.4952 3.05429C16.7453 3.22404 16.0605 3.60674 15.523 4.1564C14.9855 4.70605 14.6182 5.39925 14.4652 6.15267C14.3122 6.90609 14.3801 7.68765 14.6608 8.4034L12.5636 10.5006L12.0346 9.9709L12.0312 9.96902C11.8413 9.74381 11.7026 9.47996 11.6248 9.19577C11.4601 8.678 11.384 8.13613 11.3998 7.59302C11.409 6.68852 11.1575 5.80049 10.6753 5.03518C10.1931 4.26986 9.50065 3.65966 8.68076 3.27757C7.86087 2.89547 6.94826 2.75766 6.0521 2.88062C5.15594 3.00357 4.31418 3.38209 3.6275 3.9709C3.58684 4.00577 3.55534 4.05006 3.53575 4.09991C3.51617 4.14976 3.50909 4.20365 3.51514 4.25687C3.52119 4.31009 3.54018 4.36102 3.57045 4.4052C3.60073 4.44939 3.64137 4.48548 3.68881 4.51034L7.39663 6.45715L7.6895 7.45184L6.71094 8.69271L3.16344 6.67446C3.11579 6.64741 3.06213 6.63273 3.00735 6.63176C2.95257 6.63078 2.89842 6.64355 2.84985 6.66889C2.80127 6.69423 2.75982 6.73134 2.72928 6.77683C2.69873 6.82231 2.68007 6.87472 2.675 6.92927C2.61111 7.58728 2.70182 8.25111 2.93987 8.86786C3.17793 9.4846 3.55677 10.0372 4.04619 10.4816C4.28868 10.7052 4.55687 10.8992 4.84513 11.0595L4.62856 11.3344C4.59768 11.3735 4.57611 11.4191 4.56549 11.4678C4.55487 11.5164 4.55547 11.5669 4.56725 11.6153C4.57904 11.6637 4.60169 11.7087 4.6335 11.7471C4.6653 11.7854 4.70542 11.816 4.75081 11.8365C5.76687 12.2952 6.91252 12.3792 7.98463 12.0737C8.24152 11.9913 8.51455 11.9724 8.78035 12.0186C9.04615 12.0648 9.29681 12.1747 9.51088 12.3388C9.53919 12.3625 9.56713 12.3868 9.5915 12.412L9.59281 12.4135L10.1219 12.9426L8.07913 14.985C7.36345 14.7045 6.582 14.6367 5.82869 14.7896C5.07538 14.9426 4.38227 15.3098 3.83265 15.8472C3.28304 16.3846 2.90031 17.0693 2.73047 17.819C2.56063 18.5686 2.61091 19.3514 2.87525 20.0732C2.89425 20.1249 2.92596 20.171 2.96746 20.2072C3.00895 20.2435 3.0589 20.2687 3.1127 20.2805C3.1665 20.2923 3.22241 20.2905 3.27529 20.275C3.32816 20.2596 3.3763 20.231 3.41525 20.1921L5.82875 17.7786L7.50144 17.823L7.54569 19.4955L5.13219 21.909C5.0932 21.948 5.06465 21.9961 5.04919 22.0491C5.03372 22.102 5.03184 22.1579 5.0437 22.2117C5.05557 22.2656 5.0808 22.3155 5.11707 22.357C5.15335 22.3986 5.19949 22.4302 5.25125 22.4492C5.96589 22.71 6.7401 22.7615 7.48297 22.5976C8.22584 22.4337 8.90652 22.0612 9.44506 21.5239C9.99192 20.9737 10.3675 20.2767 10.5262 19.5174C10.6849 18.7581 10.62 17.9691 10.3393 17.2459L12.3817 15.2021L19.0582 21.8788C19.3829 22.1984 19.8208 22.3767 20.2765 22.3749C20.7321 22.373 21.1685 22.1912 21.4907 21.8689C21.8128 21.5467 21.9946 21.1103 21.9963 20.6546C21.9981 20.199 21.8197 19.7611 21.5 19.4365L14.8239 12.7607ZM11.8029 10.6676L12.0997 10.9646L10.5854 12.4789L10.2888 12.1821L11.8029 10.6676ZM4.49038 9.99884C3.78574 9.35956 3.36359 8.46678 3.31663 7.51652L6.30031 9.21396L5.25688 10.537C4.9785 10.3925 4.72084 10.2115 4.49038 9.99884ZM8.51113 11.3426C8.27213 11.3431 8.03436 11.3767 7.80463 11.4426C7.02191 11.6652 6.19042 11.6481 5.41756 11.3933L5.59681 11.1656C5.60056 11.1615 5.60375 11.1568 5.60731 11.1525L7.04038 9.33509L7.04375 9.33077L8.30975 7.72502C8.3421 7.6838 8.36409 7.63541 8.37387 7.58393C8.38366 7.53245 8.38096 7.47937 8.366 7.42915L7.98631 6.13859C7.97388 6.09642 7.9531 6.05718 7.92521 6.0232C7.89731 5.98922 7.86288 5.96119 7.82394 5.94077L4.44894 4.1689C5.22927 3.65427 6.163 3.42402 7.09313 3.51687C8.02325 3.60972 8.89304 4.01999 9.55625 4.67871C9.9389 5.05915 10.2412 5.5126 10.4452 6.01214C10.6492 6.51168 10.7507 7.04711 10.7437 7.58665C10.7271 8.20323 10.8151 8.81816 11.0038 9.4054C11.089 9.6783 11.2097 9.93884 11.3628 10.1803L9.80469 11.7383C9.4246 11.4761 8.97268 11.3379 8.51094 11.3426H8.51113ZM9.65281 17.3068C9.90904 17.8637 10.0068 18.4805 9.93537 19.0893C9.86394 19.6982 9.62608 20.2755 9.24791 20.758C8.86974 21.2405 8.36591 21.6094 7.79176 21.8242C7.21761 22.039 6.59536 22.0914 5.99338 21.9756L8.10969 19.8593C8.14119 19.8278 8.16595 19.7902 8.18245 19.7488C8.19896 19.7074 8.20686 19.6631 8.20569 19.6185L8.14944 17.494C8.14708 17.4102 8.11274 17.3305 8.05346 17.2712C7.99419 17.2119 7.91448 17.1776 7.83069 17.1752L5.70613 17.119C5.66155 17.1178 5.61721 17.1257 5.57579 17.1422C5.53437 17.1587 5.49674 17.1835 5.46519 17.215L3.34813 19.3311C3.23203 18.7288 3.28426 18.1062 3.49908 17.5317C3.7139 16.9572 4.08299 16.4531 4.56576 16.0748C5.04852 15.6964 5.62627 15.4586 6.23547 15.3873C6.84466 15.3161 7.46171 15.4142 8.01875 15.6709C8.07962 15.6989 8.14761 15.7075 8.21355 15.6957C8.27949 15.6839 8.34022 15.6521 8.38756 15.6047L10.8164 13.1758H10.8176V13.1745L12.794 11.1983L15.2812 8.7109C15.3286 8.66352 15.3603 8.60275 15.3721 8.53677C15.384 8.47079 15.3752 8.40277 15.3472 8.3419C15.0909 7.78501 14.9931 7.16826 15.0645 6.5594C15.1359 5.95054 15.3737 5.37314 15.7518 4.89062C16.1299 4.4081 16.6337 4.03913 17.2079 3.82425C17.782 3.60937 18.4042 3.5569 19.0063 3.67259L16.8905 5.78965C16.859 5.82101 16.8341 5.85846 16.8175 5.89972C16.8009 5.94097 16.7928 5.98518 16.7938 6.02965L16.85 8.15421C16.8523 8.23802 16.8866 8.31775 16.9459 8.37704C17.0052 8.43632 17.0849 8.47064 17.1688 8.47296L19.2933 8.52921C19.3379 8.5307 19.3823 8.52294 19.4237 8.50641C19.4652 8.48989 19.5027 8.46497 19.5341 8.43321L21.6519 6.31765C21.7676 6.91962 21.7151 7.54183 21.5003 8.11594C21.2855 8.69006 20.9166 9.19386 20.4342 9.57201C19.9517 9.95016 19.3744 10.188 18.7656 10.2595C18.1568 10.331 17.54 10.2332 16.9831 9.97709C16.9223 9.94904 16.8542 9.94033 16.7883 9.95213C16.7223 9.96393 16.6615 9.99567 16.6141 10.0431L9.71881 16.9376C9.67142 16.9851 9.63968 17.0459 9.62785 17.1119C9.61602 17.1779 9.62485 17.2459 9.65281 17.3068ZM21.0363 21.4131C20.8352 21.6135 20.5628 21.7261 20.2789 21.7261C19.995 21.7261 19.7226 21.6135 19.5215 21.4131L12.8465 14.7381L14.3606 13.224L21.0356 19.899C21.236 20.1001 21.3486 20.3723 21.3487 20.6562C21.3488 20.9401 21.2364 21.2125 21.0361 21.4136L21.0363 21.4131Z" fill="#B6B6B6"/>
<path d="M10.4489 9.18493L9.24669 8.14186C9.18096 8.08487 9.09529 8.05631 9.00852 8.06247C8.92174 8.06862 8.84096 8.10898 8.78394 8.17468L7.74087 9.37693C7.71264 9.40949 7.69109 9.44729 7.67747 9.48818C7.66385 9.52907 7.65841 9.57224 7.66148 9.61523C7.66454 9.65822 7.67604 9.70018 7.69533 9.73873C7.71461 9.77727 7.7413 9.81164 7.77387 9.83986L8.97612 10.8829C9.03575 10.9347 9.11205 10.9632 9.191 10.9632C9.19887 10.9632 9.20656 10.9632 9.21444 10.9632C9.30139 10.957 9.38232 10.9165 9.43944 10.8507L10.4823 9.64824C10.5106 9.61566 10.5322 9.57781 10.5458 9.53687C10.5595 9.49593 10.5649 9.4527 10.5618 9.40965C10.5587 9.36661 10.5471 9.32461 10.5278 9.28604C10.5084 9.24748 10.4816 9.21312 10.4489 9.18493ZM9.15837 10.1721L8.45169 9.55843L9.06462 8.85193L9.77112 9.46486L9.15837 10.1721Z" fill="#B6B6B6"/>
<path d="M20.1167 20.8242C20.2979 20.8242 20.4448 20.6773 20.4448 20.496C20.4448 20.3148 20.2979 20.1679 20.1167 20.1679C19.9355 20.1679 19.7886 20.3148 19.7886 20.496C19.7886 20.6773 19.9355 20.8242 20.1167 20.8242Z" fill="#B6B6B6"/>
</svg>
