<svg width="25" height="25" viewBox="0 0 25 25" fill="none" xmlns="http://www.w3.org/2000/svg">
<path d="M22.4623 15.1353C22.2683 14.6554 21.7218 14.4234 21.2418 14.6175C20.7617 14.8116 20.5299 15.358 20.724 15.8381L21.8281 18.5693L18.5488 17.1237C18.3114 17.0191 18.0413 17.0174 17.8027 17.1193C16.682 17.5974 15.4815 17.8399 14.2344 17.8399C9.21536 17.8399 5.84378 13.9101 5.84378 10.2398C5.84378 6.04904 9.60779 2.63964 14.2344 2.63964C18.861 2.63964 22.625 6.04904 22.625 10.2398C22.625 10.5667 22.5946 10.9582 22.5415 11.3138C22.4651 11.8259 22.8183 12.303 23.3304 12.3794C23.8426 12.456 24.3196 12.1026 24.396 11.5905C24.4631 11.1409 24.5 10.6612 24.5 10.2398C24.5 7.69304 23.4216 5.30345 21.4633 3.51119C19.5282 1.74007 16.9609 0.764648 14.2344 0.764648C11.5079 0.764648 8.94062 1.74007 7.00548 3.51114C5.25554 5.11276 4.20892 7.19157 4.0059 9.43309C1.8048 10.8907 0.500031 13.2264 0.500031 15.7424C0.500031 17.314 0.995172 18.8052 1.93769 20.0885L0.568375 23.4757C0.425359 23.8294 0.511 24.2346 0.784984 24.5002C0.963531 24.6733 1.1988 24.7646 1.43772 24.7646C1.56536 24.7646 1.69408 24.7386 1.81567 24.685L5.7639 22.9445C6.75709 23.3142 7.80695 23.5014 8.89061 23.5014C8.91404 23.5014 8.93706 23.4995 8.96007 23.4979C10.5274 23.486 12.0512 23.0737 13.3709 22.3022C14.553 21.6111 15.5254 20.6617 16.2071 19.5405C16.8727 19.421 17.5232 19.2404 18.1546 18.999L23.1843 21.2162C23.306 21.2698 23.4346 21.2959 23.5623 21.2959C23.8012 21.2959 24.0365 21.2045 24.2151 21.0314C24.4891 20.7658 24.5747 20.3608 24.4317 20.007L22.4623 15.1353ZM8.8907 21.624C8.8779 21.624 8.86543 21.6254 8.85273 21.6259C7.89545 21.621 6.97408 21.4329 6.11359 21.0658C5.87504 20.9639 5.6049 20.9655 5.36753 21.0702L3.17205 22.038L3.88028 20.286C4.0112 19.9622 3.95115 19.5923 3.72456 19.3265C2.84167 18.2907 2.37503 17.0514 2.37503 15.7424C2.37503 14.2442 3.00526 12.8247 4.10795 11.7483C4.45126 13.6198 5.41994 15.4101 6.88117 16.8164C8.6995 18.5664 11.1047 19.5802 13.7018 19.7023C12.4824 20.9025 10.7376 21.624 8.8907 21.624Z" fill="#B6B6B6"/>
<path d="M14.187 11.2178C14.7048 11.2178 15.1245 10.798 15.1245 10.2803C15.1245 9.76251 14.7048 9.34277 14.187 9.34277C13.6692 9.34277 13.2495 9.76251 13.2495 10.2803C13.2495 10.798 13.6692 11.2178 14.187 11.2178Z" fill="#B6B6B6"/>
<path d="M17.937 11.2178C18.4548 11.2178 18.8745 10.798 18.8745 10.2803C18.8745 9.76251 18.4548 9.34277 17.937 9.34277C17.4192 9.34277 16.9995 9.76251 16.9995 10.2803C16.9995 10.798 17.4192 11.2178 17.937 11.2178Z" fill="#B6B6B6"/>
<path d="M10.437 11.2178C10.9548 11.2178 11.3745 10.798 11.3745 10.2803C11.3745 9.76251 10.9548 9.34277 10.437 9.34277C9.91924 9.34277 9.49951 9.76251 9.49951 10.2803C9.49951 10.798 9.91924 11.2178 10.437 11.2178Z" fill="#B6B6B6"/>
</svg>
