<svg width="24" height="25" viewBox="0 0 24 25" fill="none" xmlns="http://www.w3.org/2000/svg">
<path d="M4 18.7646C4 17.7038 4.42143 16.6864 5.17157 15.9362C5.92172 15.1861 6.93913 14.7646 8 14.7646H16C17.0609 14.7646 18.0783 15.1861 18.8284 15.9362C19.5786 16.6864 20 17.7038 20 18.7646C20 19.2951 19.7893 19.8038 19.4142 20.1789C19.0391 20.5539 18.5304 20.7646 18 20.7646H6C5.46957 20.7646 4.96086 20.5539 4.58579 20.1789C4.21071 19.8038 4 19.2951 4 18.7646Z" stroke="#B6B6B6" stroke-width="2" stroke-linejoin="round"/>
<path d="M12 10.7646C13.6569 10.7646 15 9.4215 15 7.76465C15 6.10779 13.6569 4.76465 12 4.76465C10.3431 4.76465 9 6.10779 9 7.76465C9 9.4215 10.3431 10.7646 12 10.7646Z" stroke="#B6B6B6" stroke-width="2"/>
</svg>
