<svg width="25" height="25" viewBox="0 0 25 25" fill="none" xmlns="http://www.w3.org/2000/svg">
<path d="M21.5 17.7646V8.76465H7.5V17.7646H21.5ZM21.5 3.76465C22.0304 3.76465 22.5391 3.97536 22.9142 4.35043C23.2893 4.72551 23.5 5.23422 23.5 5.76465V17.7646C23.5 18.2951 23.2893 18.8038 22.9142 19.1789C22.5391 19.5539 22.0304 19.7646 21.5 19.7646H7.5C6.96957 19.7646 6.46086 19.5539 6.08579 19.1789C5.71071 18.8038 5.5 18.2951 5.5 17.7646V5.76465C5.5 5.23422 5.71071 4.72551 6.08579 4.35043C6.46086 3.97536 6.96957 3.76465 7.5 3.76465H8.5V1.76465H10.5V3.76465H18.5V1.76465H20.5V3.76465H21.5ZM3.5 21.7646H17.5V23.7646H3.5C2.96957 23.7646 2.46086 23.5539 2.08579 23.1789C1.71071 22.8038 1.5 22.2951 1.5 21.7646V9.76465H3.5V21.7646ZM19.5 15.7646H15.5V11.7646H19.5V15.7646Z" fill="#B6B6B6"/>
</svg>
