<svg width="25" height="25" viewBox="0 0 25 25" fill="none" xmlns="http://www.w3.org/2000/svg">
<g clip-path="url(#clip0_250_6748)">
<path d="M7.1748 5.03962C10.385 5.03962 12.9873 4.21695 12.9873 3.20212C12.9873 2.1873 10.385 1.36462 7.1748 1.36462C3.96465 1.36462 1.3623 2.1873 1.3623 3.20212C1.3623 4.21695 3.96465 5.03962 7.1748 5.03962Z" stroke="#B6B6B6" stroke-miterlimit="10" stroke-linecap="round" stroke-linejoin="round"/>
<path d="M1.3999 8.15216C1.3999 9.16466 3.9874 9.98966 7.2124 9.98966C9.1999 9.98966 10.9624 9.65216 12.0124 9.16466" stroke="#B6B6B6" stroke-miterlimit="10" stroke-linecap="round" stroke-linejoin="round"/>
<circle cx="12.9873" cy="8.15216" r="0.375" fill="#B6B6B6"/>
<path d="M1.3999 14.1146C1.3999 15.1271 3.9874 15.9521 7.2124 15.9521C9.1999 15.9521 10.9624 15.6146 12.0124 15.1271" stroke="#B6B6B6" stroke-miterlimit="10" stroke-linecap="round" stroke-linejoin="round"/>
<path d="M5.03721 3.72712C5.94848 3.72712 6.68721 3.49207 6.68721 3.20212C6.68721 2.91217 5.94848 2.67712 5.03721 2.67712C4.12594 2.67712 3.38721 2.91217 3.38721 3.20212C3.38721 3.49207 4.12594 3.72712 5.03721 3.72712Z" stroke="#B6B6B6" stroke-miterlimit="10" stroke-linecap="round" stroke-linejoin="round"/>
<path d="M1.3999 3.20215V8.15215V14.1146V18.3896C1.3999 19.4021 3.9874 20.2272 7.2124 20.2272C9.1999 20.2272 10.9624 19.8897 12.0124 19.4022" stroke="#B6B6B6" stroke-miterlimit="10" stroke-linecap="round" stroke-linejoin="round"/>
<circle cx="12.9873" cy="8.15216" r="0.375" fill="#B6B6B6"/>
<path d="M12.9873 6.08965V3.20215" stroke="#B6B6B6" stroke-miterlimit="10" stroke-linecap="round" stroke-linejoin="round"/>
<path d="M8.6373 13.5146C8.6373 14.1896 8.1123 14.7146 7.4373 14.7146C6.7623 14.7146 6.2373 14.1896 6.2373 13.5146C6.2373 12.8396 7.4373 11.2271 7.4373 11.2271C7.4373 11.2271 8.6373 12.8771 8.6373 13.5146Z" stroke="#B6B6B6" stroke-miterlimit="10" stroke-linecap="round" stroke-linejoin="round"/>
<path d="M17.8247 8.97712C21.0349 8.97712 23.6372 8.15445 23.6372 7.13962C23.6372 6.1248 21.0349 5.30212 17.8247 5.30212C14.6146 5.30212 12.0122 6.1248 12.0122 7.13962C12.0122 8.15445 14.6146 8.97712 17.8247 8.97712Z" stroke="#B6B6B6" stroke-miterlimit="10" stroke-linecap="round" stroke-linejoin="round"/>
<path d="M23.5996 12.0521C23.5996 13.0646 21.0121 13.8896 17.7871 13.8896C14.5621 13.8896 11.9746 13.0646 11.9746 12.0521" stroke="#B6B6B6" stroke-miterlimit="10" stroke-linecap="round" stroke-linejoin="round"/>
<path d="M23.5996 18.0521C23.5996 19.0646 21.0121 19.8896 17.7871 19.8896C14.5621 19.8896 11.9746 19.0646 11.9746 18.0521" stroke="#B6B6B6" stroke-miterlimit="10" stroke-linecap="round" stroke-linejoin="round"/>
<path d="M15.65 7.66462C16.5613 7.66462 17.3 7.42957 17.3 7.13962C17.3 6.84967 16.5613 6.61462 15.65 6.61462C14.7387 6.61462 14 6.84967 14 7.13962C14 7.42957 14.7387 7.66462 15.65 7.66462Z" stroke="#B6B6B6" stroke-miterlimit="10" stroke-linecap="round" stroke-linejoin="round"/>
<path d="M23.5996 7.13965V22.3271C23.5996 23.3396 21.0121 24.1647 17.7871 24.1647C14.5621 24.1647 11.9746 23.3396 11.9746 22.3271V7.13965" stroke="#B6B6B6" stroke-miterlimit="10" stroke-linecap="round" stroke-linejoin="round"/>
<path d="M19.2496 17.4522C19.2496 18.1272 18.7246 18.6522 18.0496 18.6522C17.3746 18.6522 16.8496 18.1272 16.8496 17.4522C16.8496 16.7772 18.0496 15.1647 18.0496 15.1647C18.0496 15.1647 19.2496 16.7772 19.2496 17.4522Z" stroke="#B6B6B6" stroke-miterlimit="10" stroke-linecap="round" stroke-linejoin="round"/>
<path d="M2.59961 5.71466V7.85216" stroke="#B6B6B6" stroke-miterlimit="10" stroke-linecap="round" stroke-linejoin="round"/>
<path d="M2.59961 16.3646V18.5021" stroke="#B6B6B6" stroke-miterlimit="10" stroke-linecap="round" stroke-linejoin="round"/>
<path d="M13.3247 9.57715V11.7146" stroke="#B6B6B6" stroke-miterlimit="10" stroke-linecap="round" stroke-linejoin="round"/>
<path d="M13.3247 20.2646V22.4021" stroke="#B6B6B6" stroke-miterlimit="10" stroke-linecap="round" stroke-linejoin="round"/>
</g>
<defs>
<clipPath id="clip0_250_6748">
<rect width="24" height="24" fill="white" transform="translate(0.5 0.764648)"/>
</clipPath>
</defs>
</svg>
